<mxfile host="app.diagrams.net" agent="Mozilla/5.0 (Windows NT 10.0; Win64; x64) AppleWebKit/537.36 (KHTML, like Gecko) Chrome/136.0.0.0 Safari/537.36 Edg/136.0.0.0" version="26.2.12">
  <diagram name="Page-1" id="kUwsgT4D4Ydp8z3u_dGg">
    <mxGraphModel dx="915" dy="503" grid="1" gridSize="10" guides="1" tooltips="1" connect="1" arrows="1" fold="1" page="1" pageScale="1" pageWidth="850" pageHeight="500" math="0" shadow="0">
      <root>
        <mxCell id="0" />
        <mxCell id="1" parent="0" />
        <mxCell id="1_qjmZdMQNeF-Iupqh0r-27" style="edgeStyle=orthogonalEdgeStyle;rounded=0;orthogonalLoop=1;jettySize=auto;html=1;entryX=0.5;entryY=0;entryDx=0;entryDy=0;" edge="1" parent="1" source="1_qjmZdMQNeF-Iupqh0r-19" target="1_qjmZdMQNeF-Iupqh0r-26">
          <mxGeometry relative="1" as="geometry" />
        </mxCell>
        <mxCell id="1_qjmZdMQNeF-Iupqh0r-19" value="Error Function&lt;div&gt;Return MSE, maximum distance, lag&lt;/div&gt;" style="rounded=1;whiteSpace=wrap;html=1;" vertex="1" parent="1">
          <mxGeometry x="345" y="250" width="160" height="60" as="geometry" />
        </mxCell>
        <mxCell id="1_qjmZdMQNeF-Iupqh0r-24" style="edgeStyle=orthogonalEdgeStyle;rounded=0;orthogonalLoop=1;jettySize=auto;html=1;entryX=0.5;entryY=0;entryDx=0;entryDy=0;" edge="1" parent="1" source="1_qjmZdMQNeF-Iupqh0r-22" target="1_qjmZdMQNeF-Iupqh0r-23">
          <mxGeometry relative="1" as="geometry" />
        </mxCell>
        <mxCell id="1_qjmZdMQNeF-Iupqh0r-22" value="Model" style="rounded=1;whiteSpace=wrap;html=1;" vertex="1" parent="1">
          <mxGeometry x="364.5" y="70" width="120" height="40" as="geometry" />
        </mxCell>
        <mxCell id="1_qjmZdMQNeF-Iupqh0r-25" style="edgeStyle=orthogonalEdgeStyle;rounded=0;orthogonalLoop=1;jettySize=auto;html=1;exitX=0.5;exitY=1;exitDx=0;exitDy=0;entryX=0.5;entryY=0;entryDx=0;entryDy=0;" edge="1" parent="1" source="1_qjmZdMQNeF-Iupqh0r-23" target="1_qjmZdMQNeF-Iupqh0r-19">
          <mxGeometry relative="1" as="geometry" />
        </mxCell>
        <mxCell id="1_qjmZdMQNeF-Iupqh0r-23" value="Predict Pitch and Roll" style="rounded=1;whiteSpace=wrap;html=1;" vertex="1" parent="1">
          <mxGeometry x="357.5" y="160" width="135" height="40" as="geometry" />
        </mxCell>
        <mxCell id="1_qjmZdMQNeF-Iupqh0r-26" value="Unsupervised Anomaly Detection" style="rounded=1;whiteSpace=wrap;html=1;" vertex="1" parent="1">
          <mxGeometry x="364.5" y="360" width="120" height="60" as="geometry" />
        </mxCell>
      </root>
    </mxGraphModel>
  </diagram>
</mxfile>
